<svg width="619" height="515" viewBox="0 0 619 515" fill="none" xmlns="http://www.w3.org/2000/svg">
<path d="M233.558 510C223.309 510 215 499.385 215 486.291V28.7089C215 15.6149 223.309 5 233.558 5H535.187C540.192 5 544.985 7.58263 548.478 12.1619L608.733 91.1523C612.11 95.5797 614 101.517 614 107.699V486.291C614 499.385 605.691 510 595.442 510H233.558Z" fill="white"/>
<path d="M538.376 82.5571C538.376 95.5538 546.566 106.128 556.738 106.265L607.509 106.948C607.765 106.951 607.971 107.22 607.968 107.547C607.965 107.874 607.756 108.137 607.499 108.133L555.811 107.438C545.638 107.302 537.448 96.7275 537.448 83.7308L538.376 5.35236C538.376 5.02501 537.655 18.0399 537.912 18.0399C538.168 18.0399 538.376 18.3053 538.376 18.6326V82.5571Z" fill="#082F49"/>
<path d="M233.558 510C223.309 510 215 499.385 215 486.291V28.7089C215 15.6149 223.309 5 233.558 5H535.187C540.192 5 544.985 7.58263 548.478 12.1619L608.733 91.1523C612.11 95.5797 614 101.517 614 107.699V486.291C614 499.385 605.691 510 595.442 510H233.558Z" stroke="#082F49" stroke-width="10"/>
<path d="M538.376 82.5571C538.376 95.5538 546.566 106.128 556.738 106.265L607.509 106.948C607.765 106.951 607.971 107.22 607.968 107.547C607.965 107.874 607.756 108.137 607.499 108.133L555.811 107.438C545.638 107.302 537.448 96.7275 537.448 83.7308L538.376 5.35236C538.376 5.02501 537.655 18.0399 537.912 18.0399C538.168 18.0399 538.376 18.3053 538.376 18.6326V82.5571Z" stroke="#082F49" stroke-width="10"/>
<path d="M206.93 99C209.646 99 212.338 99.1097 215 99.3223V399.402H89.0625C39.8747 399.402 0 359.528 0 310.34C0.000173198 261.152 39.8749 221.278 89.0625 221.277H97.4814V199C97.4815 143.772 142.253 99 197.481 99H206.93Z" fill="#082F49"/>
<line x1="258" y1="109" x2="517" y2="109" stroke="#082F49" stroke-width="10" stroke-linecap="round"/>
<line x1="258.006" y1="162.991" x2="383.137" y2="162.991" stroke="#082F49" stroke-width="10" stroke-linecap="round"/>
<line x1="258.006" y1="137.991" x2="499.146" y2="137.991" stroke="#082F49" stroke-width="10" stroke-linecap="round"/>
<mask id="path-6-inside-1_2462_1632" fill="white">
<path d="M317 329H333V345H317V329Z"/>
<path d="M301 313H317V329H301V313Z"/>
<path d="M445 401H453V417H445V401Z"/>
<path d="M365 433H381V449H365V433Z"/>
<path d="M365 417H381V433H365V417Z"/>
<path d="M253 345H269V361H253V345Z"/>
<path d="M269 345H285V361H269V345Z"/>
<path d="M285 345H301V361H285V345Z"/>
<path d="M253 249H309V305H253V249Z"/>
<path d="M337 249H353V265H337V249Z"/>
<path d="M285 329H301V345H285V329Z"/>
<path d="M269 265H293V289H269V265Z"/>
<path d="M269 265H293V289H269V265Z"/>
<path d="M349 305H365V321H349V305Z"/>
<path d="M333 289H349V305H333V289Z"/>
<path d="M317 361H333V377H317V361Z"/>
<path d="M341 369H357V385H341V369Z"/>
<path d="M325 433H341V449H325V433Z"/>
<path d="M325 417H341V433H325V417Z"/>
<path d="M325 401H341V417H325V401Z"/>
<path d="M341 385H357V401H341V385Z"/>
<path d="M333 345H349V361H333V345Z"/>
<path d="M317 345H333V361H317V345Z"/>
<path d="M437 417H453V433H437V417Z"/>
<path d="M437 433H453V449H437V433Z"/>
<path d="M421 433H437V449H421V433Z"/>
<path d="M405 433H421V449H405V433Z"/>
<path d="M393 433H409V449H393V433Z"/>
<path d="M393 417H409V433H393V417Z"/>
<path d="M413 401H429V417H413V401Z"/>
<path d="M429 401H445V417H429V401Z"/>
<path d="M429 385H445V401H429V385Z"/>
<path d="M445 385H453V401H445V385Z"/>
<path d="M413 385H429V401H413V385Z"/>
<path d="M381 401H397V417H381V401Z"/>
<path d="M365 385H381V401H365V385Z"/>
<path d="M381 385H397V401H381V385Z"/>
<path d="M397 369H413V385H397V369Z"/>
<path d="M365 353H381V369H365V353Z"/>
<path d="M365 337H381V353H365V337Z"/>
<path d="M365 321H381V337H365V321Z"/>
<path d="M365 305H381V321H365V305Z"/>
<path d="M349 345H365V361H349V345Z"/>
<path d="M365 369H381V385H365V369Z"/>
<path d="M397 321H413V337H397V321Z"/>
<path d="M397 337H413V353H397V337Z"/>
<path d="M397 353H413V369H397V353Z"/>
<path d="M437 345H453V361H437V345Z"/>
<path d="M421 313H437V329H421V313Z"/>
<path d="M437 329H453V345H437V329Z"/>
<path d="M381 345H397V361H381V345Z"/>
<path d="M397 305H413V321H397V305Z"/>
<path d="M381 289H397V305H381V289Z"/>
<path d="M397 249H453V305H397V249Z"/>
<path d="M253 393H309V449H253V393Z"/>
<path d="M413 265H437V289H413V265Z"/>
<path d="M269 409H293V433H269V409Z"/>
</mask>
<path d="M317 329H333V345H317V329Z" fill="#082F49"/>
<path d="M301 313H317V329H301V313Z" fill="#082F49"/>
<path d="M445 401H453V417H445V401Z" fill="#082F49"/>
<path d="M365 433H381V449H365V433Z" fill="#082F49"/>
<path d="M365 417H381V433H365V417Z" fill="#082F49"/>
<path d="M253 345H269V361H253V345Z" fill="#082F49"/>
<path d="M269 345H285V361H269V345Z" fill="#082F49"/>
<path d="M285 345H301V361H285V345Z" fill="#082F49"/>
<path d="M253 249H309V305H253V249Z" fill="#082F49"/>
<path d="M337 249H353V265H337V249Z" fill="#082F49"/>
<path d="M285 329H301V345H285V329Z" fill="#082F49"/>
<path d="M269 265H293V289H269V265Z" fill="white"/>
<path d="M269 265H293V289H269V265Z" fill="white"/>
<path d="M349 305H365V321H349V305Z" fill="#082F49"/>
<path d="M333 289H349V305H333V289Z" fill="#082F49"/>
<path d="M317 361H333V377H317V361Z" fill="#082F49"/>
<path d="M341 369H357V385H341V369Z" fill="#082F49"/>
<path d="M325 433H341V449H325V433Z" fill="#082F49"/>
<path d="M325 417H341V433H325V417Z" fill="#082F49"/>
<path d="M325 401H341V417H325V401Z" fill="#082F49"/>
<path d="M341 385H357V401H341V385Z" fill="#082F49"/>
<path d="M333 345H349V361H333V345Z" fill="#082F49"/>
<path d="M317 345H333V361H317V345Z" fill="#082F49"/>
<path d="M437 417H453V433H437V417Z" fill="#082F49"/>
<path d="M437 433H453V449H437V433Z" fill="#082F49"/>
<path d="M421 433H437V449H421V433Z" fill="#082F49"/>
<path d="M405 433H421V449H405V433Z" fill="#082F49"/>
<path d="M393 433H409V449H393V433Z" fill="#082F49"/>
<path d="M393 417H409V433H393V417Z" fill="#082F49"/>
<path d="M413 401H429V417H413V401Z" fill="#082F49"/>
<path d="M429 401H445V417H429V401Z" fill="#082F49"/>
<path d="M429 385H445V401H429V385Z" fill="#082F49"/>
<path d="M445 385H453V401H445V385Z" fill="#082F49"/>
<path d="M413 385H429V401H413V385Z" fill="#082F49"/>
<path d="M381 401H397V417H381V401Z" fill="#082F49"/>
<path d="M365 385H381V401H365V385Z" fill="#082F49"/>
<path d="M381 385H397V401H381V385Z" fill="#082F49"/>
<path d="M397 369H413V385H397V369Z" fill="#082F49"/>
<path d="M365 353H381V369H365V353Z" fill="#082F49"/>
<path d="M365 337H381V353H365V337Z" fill="#082F49"/>
<path d="M365 321H381V337H365V321Z" fill="#082F49"/>
<path d="M365 305H381V321H365V305Z" fill="#082F49"/>
<path d="M349 345H365V361H349V345Z" fill="#082F49"/>
<path d="M365 369H381V385H365V369Z" fill="#082F49"/>
<path d="M397 321H413V337H397V321Z" fill="#082F49"/>
<path d="M397 337H413V353H397V337Z" fill="#082F49"/>
<path d="M397 353H413V369H397V353Z" fill="#082F49"/>
<path d="M437 345H453V361H437V345Z" fill="#082F49"/>
<path d="M421 313H437V329H421V313Z" fill="#082F49"/>
<path d="M437 329H453V345H437V329Z" fill="#082F49"/>
<path d="M381 345H397V361H381V345Z" fill="#082F49"/>
<path d="M397 305H413V321H397V305Z" fill="#082F49"/>
<path d="M381 289H397V305H381V289Z" fill="#082F49"/>
<path d="M397 249H453V305H397V249Z" fill="#082F49"/>
<path d="M253 393H309V449H253V393Z" fill="#082F49"/>
<path d="M413 265H437V289H413V265Z" fill="white"/>
<path d="M269 409H293V433H269V409Z" fill="white"/>
<path d="M333 345H333.5V344.5H333V345ZM285 345V344.5H284.5V345H285ZM269 265V264.5H268.5V265H269ZM293 265H293.5V264.5H293V265ZM293 289V289.5H293.5V289H293ZM269 289H268.5V289.5H269V289ZM365 321H364.5V321.5H365V321ZM333 361V361.5H333.5V361H333ZM437 433V432.5H436.5V433H437ZM381 401H380.5V401.5H381V401ZM381 385H381.5V384.5H381V385ZM333 345V344.5H317V345V345.5H333V345ZM445 401V401.5H453V401V400.5H445V401ZM445 417H445.5V401H445H444.5V417H445ZM365 433V433.5H381V433V432.5H365V433ZM269 345H268.5V361H269H269.5V345H269ZM285 345H284.5V361H285H285.5V345H285ZM285 345V345.5H301V345V344.5H285V345ZM269 265V265.5H293V265V264.5H269V265ZM293 265H292.5V289H293H293.5V265H293ZM293 289V288.5H269V289V289.5H293V289ZM269 289H269.5V265H269H268.5V289H269ZM365 305H364.5V321H365H365.5V305H365ZM317 361V361.5H333V361V360.5H317V361ZM357 385V384.5H341V385V385.5H357V385ZM325 433V433.5H341V433V432.5H325V433ZM325 417V417.5H341V417V416.5H325V417ZM349 345H348.5V361H349H349.5V345H349ZM333 361H333.5V345H333H332.5V361H333ZM453 433V432.5H437V433V433.5H453V433ZM437 449H437.5V433H437H436.5V449H437ZM421 449H421.5V433H421H420.5V449H421ZM393 433V433.5H409V433V432.5H393V433ZM413 401V401.5H429V401V400.5H413V401ZM429 401H428.5V417H429H429.5V401H429ZM429 401V401.5H445V401V400.5H429V401ZM445 385H444.5V401H445H445.5V385H445ZM429 401H429.5V385H429H428.5V401H429ZM381 401V401.5H397V401V400.5H381V401ZM365 385V385.5H381V385V384.5H365V385ZM381 385H380.5V401H381H381.5V385H381ZM397 369V369.5H413V369V368.5H397V369ZM365 353V353.5H381V353V352.5H365V353ZM381 369V368.5H365V369V369.5H381V369ZM365 337V337.5H381V337V336.5H365V337ZM365 321V321.5H381V321V320.5H365V321ZM397 321V321.5H413V321V320.5H397V321ZM413 337V336.5H397V337V337.5H413V337ZM413 353V352.5H397V353V353.5H413V353ZM437 345V345.5H453V345V344.5H437V345ZM333 329H334V328H333V329ZM333 345H332V346H333V345ZM301 313V312H300V313H301ZM317 313H318V312H317V313ZM381 449V450H382V449H381ZM365 449H364V450H365V449ZM365 417V416H364V417H365ZM253 345V344H252V345H253ZM253 361H252V362H253V361ZM285 345V346H286V345H285ZM301 361V362H302V361H301ZM253 249V248H252V249H253ZM309 249H310V248H309V249ZM309 305V306H310V305H309ZM253 305H252V306H253V305ZM337 249V248H336V249H337ZM353 249H354V248H353V249ZM353 265V266H354V265H353ZM337 265H336V266H337V265ZM285 329V328H284V329H285ZM365 321H366V320H365V321ZM349 321H348V322H349V321ZM333 289V288H332V289H333ZM349 289H350V288H349V289ZM333 305H332V306H333V305ZM333 361V360H332V361H333ZM333 377V378H334V377H333ZM317 377H316V378H317V377ZM341 369V368H340V369H341ZM357 369H358V368H357V369ZM341 449V450H342V449H341ZM325 449H324V450H325V449ZM325 401V400H324V401H325ZM357 401V402H358V401H357ZM437 417V416H436V417H437ZM437 433V434H438V433H437ZM453 449V450H454V449H453ZM405 433V432H404V433H405ZM405 449H404V450H405V449ZM409 449V450H410V449H409ZM393 449H392V450H393V449ZM393 417V416H392V417H393ZM409 417H410V416H409V417ZM413 417H412V418H413V417ZM453 385H454V384H453V385ZM381 401H382V400H381V401ZM397 417V418H398V417H397ZM381 385H380V386H381V385ZM365 401H364V402H365V401ZM365 345H366V344H365V345ZM365 361V362H366V361H365ZM453 361V362H454V361H453ZM437 361H436V362H437V361ZM421 313V312H420V313H421ZM437 313H438V312H437V313ZM421 329H420V330H421V329ZM453 329H454V328H453V329ZM381 345V344H380V345H381ZM397 345H398V344H397V345ZM397 361V362H398V361H397ZM381 361H380V362H381V361ZM413 305H414V304H413V305ZM381 289V288H380V289H381ZM397 289H398V288H397V289ZM397 249V248H396V249H397ZM453 249H454V248H453V249ZM453 305V306H454V305H453ZM253 393V392H252V393H253ZM309 393H310V392H309V393ZM309 449V450H310V449H309ZM253 449H252V450H253V449ZM413 265V264H412V265H413ZM437 265H438V264H437V265ZM437 289V290H438V289H437ZM413 289H412V290H413V289ZM269 409V408H268V409H269ZM293 409H294V408H293V409ZM293 433V434H294V433H293ZM269 433H268V434H269V433ZM317 329V330H333V329V328H317V329ZM333 329H332V345H333H334V329H333ZM317 345H318V329H317H316V345H317ZM301 313V314H317V313V312H301V313ZM317 313H316V329H317H318V313H317ZM317 329V328H301V329V330H317V329ZM301 329H302V313H301H300V329H301ZM453 401H452V417H453H454V401H453ZM453 417V416H445V417V418H453V417ZM381 433H380V449H381H382V433H381ZM381 449V448H365V449V450H381V449ZM365 449H366V433H365H364V449H365ZM365 417V418H381V417V416H365V417ZM381 417H380V433H381H382V417H381ZM365 433H366V417H365H364V433H365ZM253 345V346H269V345V344H253V345ZM269 361V360H253V361V362H269V361ZM253 361H254V345H253H252V361H253ZM269 345V346H285V345V344H269V345ZM285 361V360H269V361V362H285V361ZM301 345H300V361H301H302V345H301ZM301 361V360H285V361V362H301V361ZM253 249V250H309V249V248H253V249ZM309 249H308V305H309H310V249H309ZM309 305V304H253V305V306H309V305ZM253 305H254V249H253H252V305H253ZM337 249V250H353V249V248H337V249ZM353 249H352V265H353H354V249H353ZM353 265V264H337V265V266H353V265ZM337 265H338V249H337H336V265H337ZM285 329V330H301V329V328H285V329ZM301 329H300V345H301H302V329H301ZM285 345H286V329H285H284V345H285ZM349 305V306H365V305V304H349V305ZM365 321V320H349V321V322H365V321ZM349 321H350V305H349H348V321H349ZM333 289V290H349V289V288H333V289ZM349 289H348V305H349H350V289H349ZM349 305V304H333V305V306H349V305ZM333 305H334V289H333H332V305H333ZM333 361H332V377H333H334V361H333ZM333 377V376H317V377V378H333V377ZM317 377H318V361H317H316V377H317ZM341 369V370H357V369V368H341V369ZM357 369H356V385H357H358V369H357ZM341 385H342V369H341H340V385H341ZM341 433H340V449H341H342V433H341ZM341 449V448H325V449V450H341V449ZM325 449H326V433H325H324V449H325ZM341 417H340V433H341H342V417H341ZM325 433H326V417H325H324V433H325ZM325 401V402H341V401V400H325V401ZM341 401H340V417H341H342V401H341ZM325 417H326V401H325H324V417H325ZM357 385H356V401H357H358V385H357ZM357 401V400H341V401V402H357V401ZM341 401H342V385H341H340V401H341ZM333 345V346H349V345V344H333V345ZM349 361V360H333V361V362H349V361ZM317 361H318V345H317H316V361H317ZM437 417V418H453V417V416H437V417ZM453 417H452V433H453H454V417H453ZM437 433H438V417H437H436V433H437ZM453 433H452V449H453H454V433H453ZM453 449V448H437V449V450H453V449ZM421 433V434H437V433V432H421V433ZM437 449V448H421V449V450H437V449ZM405 433V434H421V433V432H405V433ZM421 449V448H405V449V450H421V449ZM405 449H406V433H405H404V449H405ZM409 433H408V449H409H410V433H409ZM409 449V448H393V449V450H409V449ZM393 449H394V433H393H392V449H393ZM393 417V418H409V417V416H393V417ZM409 417H408V433H409H410V417H409ZM393 433H394V417H393H392V433H393ZM429 417V416H413V417V418H429V417ZM413 417H414V401H413H412V417H413ZM445 417V416H429V417V418H445V417ZM429 385V386H445V385V384H429V385ZM445 385V386H453V385V384H445V385ZM453 385H452V401H453H454V385H453ZM413 385V386H429V385V384H413V385ZM413 401H414V385H413H412V401H413ZM397 401H396V417H397H398V401H397ZM397 417V416H381V417V418H397V417ZM381 417H382V401H381H380V417H381ZM381 401V400H365V401V402H381V401ZM365 401H366V385H365H364V401H365ZM381 385V386H397V385V384H381V385ZM397 385H396V401H397H398V385H397ZM413 369H412V385H413H414V369H413ZM413 385V384H397V385V386H413V385ZM397 385H398V369H397H396V385H397ZM381 353H380V369H381H382V353H381ZM365 369H366V353H365H364V369H365ZM381 337H380V353H381H382V337H381ZM365 353H366V337H365H364V353H365ZM381 321H380V337H381H382V321H381ZM365 337H366V321H365H364V337H365ZM365 305V306H381V305V304H365V305ZM381 305H380V321H381H382V305H381ZM349 345V346H365V345V344H349V345ZM365 345H364V361H365H366V345H365ZM365 361V360H349V361V362H365V361ZM381 369H380V385H381H382V369H381ZM365 385H366V369H365H364V385H365ZM413 321H412V337H413H414V321H413ZM397 337H398V321H397H396V337H397ZM413 337H412V353H413H414V337H413ZM397 353H398V337H397H396V353H397ZM413 353H412V369H413H414V353H413ZM397 369H398V353H397H396V369H397ZM453 345H452V361H453H454V345H453ZM453 361V360H437V361V362H453V361ZM437 361H438V345H437H436V361H437ZM421 313V314H437V313V312H421V313ZM437 313H436V329H437H438V313H437ZM437 329V328H421V329V330H437V329ZM421 329H422V313H421H420V329H421ZM437 329V330H453V329V328H437V329ZM453 329H452V345H453H454V329H453ZM437 345H438V329H437H436V345H437ZM381 345V346H397V345V344H381V345ZM397 345H396V361H397H398V345H397ZM397 361V360H381V361V362H397V361ZM381 361H382V345H381H380V361H381ZM397 305V306H413V305V304H397V305ZM413 305H412V321H413H414V305H413ZM397 321H398V305H397H396V321H397ZM381 289V290H397V289V288H381V289ZM397 289H396V305H397H398V289H397ZM397 305V304H381V305V306H397V305ZM381 305H382V289H381H380V305H381ZM397 249V250H453V249V248H397V249ZM453 249H452V305H453H454V249H453ZM453 305V304H397V305V306H453V305ZM397 305H398V249H397H396V305H397ZM253 393V394H309V393V392H253V393ZM309 393H308V449H309H310V393H309ZM309 449V448H253V449V450H309V449ZM253 449H254V393H253H252V449H253ZM413 265V266H437V265V264H413V265ZM437 265H436V289H437H438V265H437ZM437 289V288H413V289V290H437V289ZM413 289H414V265H413H412V289H413ZM269 409V410H293V409V408H269V409ZM293 409H292V433H293H294V409H293ZM293 433V432H269V433V434H293V433ZM269 433H270V409H269H268V433H269Z" fill="#082F49" mask="url(#path-6-inside-1_2462_1632)"/>
<path d="M546.857 196V210.665C551.038 210.885 555.188 211.598 559.306 212.804C564.345 214.194 568.718 216.157 572.409 218.705L573.08 219.168L572.761 219.918L569.561 227.47L569.09 228.582L568.086 227.912C564.333 225.41 560.335 223.578 556.088 222.412L556.083 222.411C552.929 221.528 549.854 220.98 546.857 220.763V252.692C549.278 253.316 551.682 253.973 554.07 254.663H554.069C558.048 255.788 561.694 257.261 565.001 259.086L565.643 259.427C568.807 261.165 571.364 263.46 573.297 266.312L573.5 266.606C575.562 269.68 576.553 273.597 576.553 278.28C576.553 282.827 575.301 287.065 572.812 290.977L572.807 290.985C570.293 294.846 566.46 297.943 561.382 300.307L561.375 300.31C557.395 302.125 552.547 303.203 546.857 303.576V318.32H538.457V303.617C533.006 303.293 527.725 302.246 522.617 300.473L522.601 300.467C516.449 298.214 511.611 295.33 508.149 291.778L507.649 291.265L507.973 290.627L511.685 283.33L512.301 282.12L513.274 283.067C516.312 286.023 520.409 288.56 525.604 290.657C529.732 292.23 534.016 293.183 538.457 293.521V261.685C536.487 261.192 534.518 260.69 532.548 260.176L532.529 260.17C528.539 259.042 524.844 257.565 521.447 255.736L521.437 255.731C518.068 253.87 515.306 251.423 513.167 248.393L513.158 248.379L513.149 248.365C511.049 245.169 510.041 241.077 510.041 236.168C510.041 231.547 511.243 227.309 513.65 223.477L513.653 223.471C516.165 219.523 519.958 216.421 524.961 214.139C528.719 212.361 533.224 211.263 538.457 210.819V196H546.857ZM546.857 293.48C550.273 293.199 553.141 292.596 555.477 291.685C558.932 290.284 561.344 288.471 562.821 286.295L562.828 286.284L562.835 286.274C564.422 284.053 565.208 281.61 565.208 278.92C565.208 275.629 564.253 273.078 562.416 271.164L562.408 271.157L562.401 271.149C560.564 269.153 558.105 267.568 554.983 266.418L554.961 266.41C552.471 265.427 549.77 264.545 546.857 263.763V293.48ZM538.457 220.948C535.587 221.278 533.107 221.885 531.007 222.756C527.641 224.152 525.212 226.009 523.64 228.288L523.639 228.287C522.14 230.498 521.384 233.03 521.384 235.912C521.384 239.21 522.304 241.764 524.058 243.675C525.982 245.677 528.486 247.262 531.603 248.411L532.85 248.848C534.634 249.457 536.503 250.029 538.457 250.568V220.948Z" fill="#082F49" stroke="#082F49" stroke-width="2"/>
<mask id="path-9-outside-2_2462_1632" maskUnits="userSpaceOnUse" x="502" y="191" width="80" height="133" fill="black">
<rect fill="white" x="502" y="191" width="80" height="133"/>
<path d="M542.657 197C540.89 197 539.457 198.433 539.457 200.2V204.628C539.457 208.637 536.327 211.866 532.409 212.717C529.812 213.28 527.468 214.057 525.377 215.048C520.513 217.266 516.886 220.253 514.497 224.008C512.193 227.677 511.041 231.731 511.041 236.168L511.052 237.054C511.167 241.429 512.144 245.016 513.984 247.816C516.032 250.718 518.678 253.064 521.921 254.856C525.249 256.648 528.876 258.099 532.801 259.208C536.705 260.227 539.457 263.734 539.457 267.77V280.009C539.457 287.931 532.652 294.412 525.249 291.592C522.012 290.287 519.175 288.806 516.736 287.15C514.536 285.655 511.353 286.189 510.146 288.56C509.38 290.067 509.642 291.915 510.946 292.991C514.057 295.559 518.056 297.738 522.944 299.528C526.01 300.593 529.14 301.391 532.334 301.924C536.287 302.583 539.457 305.826 539.457 309.833V314.121C539.457 315.888 540.89 317.32 542.657 317.32C544.424 317.32 545.856 315.888 545.856 314.121V309.789C545.856 305.779 549.019 302.559 552.962 301.83C555.76 301.313 558.273 300.571 560.501 299.604L560.961 299.4C565.91 297.096 569.579 294.11 571.969 290.44C574.209 286.921 575.399 283.138 575.539 279.093L575.553 278.28C575.553 273.587 574.528 269.789 572.48 266.888C570.64 264.168 568.2 261.973 565.16 260.303L564.545 259.976C561.302 258.184 557.718 256.733 553.793 255.624C549.145 254.281 545.856 250.083 545.856 245.244V230.365C545.856 224.559 550.761 219.883 556.353 221.448C559.148 222.216 561.839 223.265 564.423 224.596C566.684 225.76 569.559 224.913 570.551 222.571C571.302 220.799 570.715 218.723 569.036 217.782C566.089 216.131 562.758 214.793 559.041 213.768C557.034 213.179 555.02 212.711 552.999 212.361C549.05 211.678 545.856 208.445 545.856 204.437V200.2C545.856 198.433 544.424 197 542.657 197ZM562.2 278.431C562.119 276.194 561.475 274.637 560.472 273.483L560.251 273.242L560.222 273.212L560.193 273.181C558.827 271.695 556.958 270.419 554.455 269.428L553.946 269.233L553.902 269.218L553.86 269.2C551.907 268.429 549.856 269.924 549.856 272.025V285.42C549.856 287.862 552.087 289.782 554.363 288.897C557.442 287.647 559.293 286.152 560.339 284.61L560.366 284.57L560.394 284.531C561.622 282.812 562.209 280.977 562.209 278.92L562.2 278.431ZM539.457 243.301C539.457 247.634 535.343 250.816 531.265 249.352C528.022 248.157 525.377 246.493 523.329 244.36C521.489 242.36 520.511 239.76 520.396 236.56L520.385 235.912C520.385 232.84 521.195 230.109 522.816 227.72C524.416 225.4 526.804 223.53 529.979 222.11L530.625 221.832C535.137 219.961 539.457 224.047 539.457 228.932V243.301ZM566.198 279.461C566.098 282.151 565.248 284.616 563.648 286.856C562.027 289.246 559.425 291.166 555.841 292.616L555.172 292.864C550.316 294.576 545.856 290.205 545.856 285.056V272.414C545.856 267.369 550.636 263.627 555.329 265.479C558.572 266.674 561.174 268.338 563.137 270.472C565.185 272.605 566.209 275.421 566.209 278.92L566.198 279.461ZM524.394 236.41C524.478 238.831 525.188 240.46 526.253 241.629C527.807 243.234 529.888 244.578 532.622 245.589C534.015 246.089 535.457 245.034 535.457 243.554V227.957C535.457 226.185 533.793 224.849 532.156 225.527C529.194 226.756 527.289 228.288 526.12 229.976C524.982 231.657 524.385 233.591 524.385 235.912L524.394 236.41ZM549.856 200.831C549.856 204.843 552.908 208.152 556.817 209.054C557.916 209.307 559.012 209.593 560.104 209.912C565.41 211.376 570.102 213.466 574.113 216.236C575.675 217.314 576.264 219.341 575.524 221.088L572.323 228.641C571.345 230.95 568.508 231.799 566.422 230.408C563.148 228.226 559.687 226.598 556.028 225.515L555.294 225.306L555.274 225.3C552.465 224.513 549.856 226.751 549.856 229.668V245.165C549.856 248.24 551.926 250.921 554.88 251.774C559.071 252.959 562.943 254.52 566.479 256.475C570.315 258.462 573.451 261.183 575.794 264.646C578.418 268.398 579.553 273.054 579.553 278.28L579.549 278.76C579.463 283.71 578.045 288.344 575.344 292.588L575.32 292.623C572.432 297.058 568.11 300.484 562.648 303.026L562.635 303.033L562.621 303.039C560.825 303.858 558.889 304.533 556.821 305.071C552.919 306.087 549.856 309.377 549.856 313.409V314.121C549.856 318.097 546.633 321.32 542.657 321.32C538.68 321.32 535.457 318.097 535.457 314.121V313.461C535.457 309.437 532.4 306.118 528.472 305.247C526.584 304.828 524.716 304.32 522.869 303.722L521.633 303.307L521.601 303.296L521.569 303.284C515.338 301.002 510.197 298.03 506.367 294.241L506.001 293.872C504.805 292.645 504.523 290.793 505.3 289.266L509.011 281.97C510.233 279.568 513.434 279.037 515.366 280.917C518.054 283.532 521.787 285.88 526.719 287.871C531.171 289.562 535.457 285.876 535.457 281.113V264.745C535.457 264.319 535.168 263.949 534.755 263.844L531.791 263.078L531.752 263.068L531.713 263.058C527.79 261.949 524.117 260.512 520.703 258.737L520.024 258.378L520.005 258.367L519.986 258.356C516.473 256.415 513.519 253.88 511.177 250.756L510.717 250.123L510.679 250.068L510.642 250.013C508.128 246.188 507.041 241.47 507.041 236.168C507.041 230.997 508.395 226.204 511.109 221.881L511.115 221.871L511.122 221.86C514.004 217.332 518.292 213.882 523.717 211.408C525.235 210.693 526.848 210.084 528.554 209.576C532.428 208.423 535.457 205.11 535.457 201.068V200.2C535.457 196.223 538.68 193 542.657 193C546.633 193 549.856 196.223 549.856 200.2V200.831Z"/>
</mask>
<path d="M542.657 197C540.89 197 539.457 198.433 539.457 200.2V204.628C539.457 208.637 536.327 211.866 532.409 212.717C529.812 213.28 527.468 214.057 525.377 215.048C520.513 217.266 516.886 220.253 514.497 224.008C512.193 227.677 511.041 231.731 511.041 236.168L511.052 237.054C511.167 241.429 512.144 245.016 513.984 247.816C516.032 250.718 518.678 253.064 521.921 254.856C525.249 256.648 528.876 258.099 532.801 259.208C536.705 260.227 539.457 263.734 539.457 267.77V280.009C539.457 287.931 532.652 294.412 525.249 291.592C522.012 290.287 519.175 288.806 516.736 287.15C514.536 285.655 511.353 286.189 510.146 288.56C509.38 290.067 509.642 291.915 510.946 292.991C514.057 295.559 518.056 297.738 522.944 299.528C526.01 300.593 529.14 301.391 532.334 301.924C536.287 302.583 539.457 305.826 539.457 309.833V314.121C539.457 315.888 540.89 317.32 542.657 317.32C544.424 317.32 545.856 315.888 545.856 314.121V309.789C545.856 305.779 549.019 302.559 552.962 301.83C555.76 301.313 558.273 300.571 560.501 299.604L560.961 299.4C565.91 297.096 569.579 294.11 571.969 290.44C574.209 286.921 575.399 283.138 575.539 279.093L575.553 278.28C575.553 273.587 574.528 269.789 572.48 266.888C570.64 264.168 568.2 261.973 565.16 260.303L564.545 259.976C561.302 258.184 557.718 256.733 553.793 255.624C549.145 254.281 545.856 250.083 545.856 245.244V230.365C545.856 224.559 550.761 219.883 556.353 221.448C559.148 222.216 561.839 223.265 564.423 224.596C566.684 225.76 569.559 224.913 570.551 222.571C571.302 220.799 570.715 218.723 569.036 217.782C566.089 216.131 562.758 214.793 559.041 213.768C557.034 213.179 555.02 212.711 552.999 212.361C549.05 211.678 545.856 208.445 545.856 204.437V200.2C545.856 198.433 544.424 197 542.657 197ZM562.2 278.431C562.119 276.194 561.475 274.637 560.472 273.483L560.251 273.242L560.222 273.212L560.193 273.181C558.827 271.695 556.958 270.419 554.455 269.428L553.946 269.233L553.902 269.218L553.86 269.2C551.907 268.429 549.856 269.924 549.856 272.025V285.42C549.856 287.862 552.087 289.782 554.363 288.897C557.442 287.647 559.293 286.152 560.339 284.61L560.366 284.57L560.394 284.531C561.622 282.812 562.209 280.977 562.209 278.92L562.2 278.431ZM539.457 243.301C539.457 247.634 535.343 250.816 531.265 249.352C528.022 248.157 525.377 246.493 523.329 244.36C521.489 242.36 520.511 239.76 520.396 236.56L520.385 235.912C520.385 232.84 521.195 230.109 522.816 227.72C524.416 225.4 526.804 223.53 529.979 222.11L530.625 221.832C535.137 219.961 539.457 224.047 539.457 228.932V243.301ZM566.198 279.461C566.098 282.151 565.248 284.616 563.648 286.856C562.027 289.246 559.425 291.166 555.841 292.616L555.172 292.864C550.316 294.576 545.856 290.205 545.856 285.056V272.414C545.856 267.369 550.636 263.627 555.329 265.479C558.572 266.674 561.174 268.338 563.137 270.472C565.185 272.605 566.209 275.421 566.209 278.92L566.198 279.461ZM524.394 236.41C524.478 238.831 525.188 240.46 526.253 241.629C527.807 243.234 529.888 244.578 532.622 245.589C534.015 246.089 535.457 245.034 535.457 243.554V227.957C535.457 226.185 533.793 224.849 532.156 225.527C529.194 226.756 527.289 228.288 526.12 229.976C524.982 231.657 524.385 233.591 524.385 235.912L524.394 236.41ZM549.856 200.831C549.856 204.843 552.908 208.152 556.817 209.054C557.916 209.307 559.012 209.593 560.104 209.912C565.41 211.376 570.102 213.466 574.113 216.236C575.675 217.314 576.264 219.341 575.524 221.088L572.323 228.641C571.345 230.95 568.508 231.799 566.422 230.408C563.148 228.226 559.687 226.598 556.028 225.515L555.294 225.306L555.274 225.3C552.465 224.513 549.856 226.751 549.856 229.668V245.165C549.856 248.24 551.926 250.921 554.88 251.774C559.071 252.959 562.943 254.52 566.479 256.475C570.315 258.462 573.451 261.183 575.794 264.646C578.418 268.398 579.553 273.054 579.553 278.28L579.549 278.76C579.463 283.71 578.045 288.344 575.344 292.588L575.32 292.623C572.432 297.058 568.11 300.484 562.648 303.026L562.635 303.033L562.621 303.039C560.825 303.858 558.889 304.533 556.821 305.071C552.919 306.087 549.856 309.377 549.856 313.409V314.121C549.856 318.097 546.633 321.32 542.657 321.32C538.68 321.32 535.457 318.097 535.457 314.121V313.461C535.457 309.437 532.4 306.118 528.472 305.247C526.584 304.828 524.716 304.32 522.869 303.722L521.633 303.307L521.601 303.296L521.569 303.284C515.338 301.002 510.197 298.03 506.367 294.241L506.001 293.872C504.805 292.645 504.523 290.793 505.3 289.266L509.011 281.97C510.233 279.568 513.434 279.037 515.366 280.917C518.054 283.532 521.787 285.88 526.719 287.871C531.171 289.562 535.457 285.876 535.457 281.113V264.745C535.457 264.319 535.168 263.949 534.755 263.844L531.791 263.078L531.752 263.068L531.713 263.058C527.79 261.949 524.117 260.512 520.703 258.737L520.024 258.378L520.005 258.367L519.986 258.356C516.473 256.415 513.519 253.88 511.177 250.756L510.717 250.123L510.679 250.068L510.642 250.013C508.128 246.188 507.041 241.47 507.041 236.168C507.041 230.997 508.395 226.204 511.109 221.881L511.115 221.871L511.122 221.86C514.004 217.332 518.292 213.882 523.717 211.408C525.235 210.693 526.848 210.084 528.554 209.576C532.428 208.423 535.457 205.11 535.457 201.068V200.2C535.457 196.223 538.68 193 542.657 193C546.633 193 549.856 196.223 549.856 200.2V200.831Z" fill="#082F49"/>
<path d="M542.657 197C540.89 197 539.457 198.433 539.457 200.2V204.628C539.457 208.637 536.327 211.866 532.409 212.717C529.812 213.28 527.468 214.057 525.377 215.048C520.513 217.266 516.886 220.253 514.497 224.008C512.193 227.677 511.041 231.731 511.041 236.168L511.052 237.054C511.167 241.429 512.144 245.016 513.984 247.816C516.032 250.718 518.678 253.064 521.921 254.856C525.249 256.648 528.876 258.099 532.801 259.208C536.705 260.227 539.457 263.734 539.457 267.77V280.009C539.457 287.931 532.652 294.412 525.249 291.592C522.012 290.287 519.175 288.806 516.736 287.15C514.536 285.655 511.353 286.189 510.146 288.56C509.38 290.067 509.642 291.915 510.946 292.991C514.057 295.559 518.056 297.738 522.944 299.528C526.01 300.593 529.14 301.391 532.334 301.924C536.287 302.583 539.457 305.826 539.457 309.833V314.121C539.457 315.888 540.89 317.32 542.657 317.32C544.424 317.32 545.856 315.888 545.856 314.121V309.789C545.856 305.779 549.019 302.559 552.962 301.83C555.76 301.313 558.273 300.571 560.501 299.604L560.961 299.4C565.91 297.096 569.579 294.11 571.969 290.44C574.209 286.921 575.399 283.138 575.539 279.093L575.553 278.28C575.553 273.587 574.528 269.789 572.48 266.888C570.64 264.168 568.2 261.973 565.16 260.303L564.545 259.976C561.302 258.184 557.718 256.733 553.793 255.624C549.145 254.281 545.856 250.083 545.856 245.244V230.365C545.856 224.559 550.761 219.883 556.353 221.448C559.148 222.216 561.839 223.265 564.423 224.596C566.684 225.76 569.559 224.913 570.551 222.571C571.302 220.799 570.715 218.723 569.036 217.782C566.089 216.131 562.758 214.793 559.041 213.768C557.034 213.179 555.02 212.711 552.999 212.361C549.05 211.678 545.856 208.445 545.856 204.437V200.2C545.856 198.433 544.424 197 542.657 197ZM562.2 278.431C562.119 276.194 561.475 274.637 560.472 273.483L560.251 273.242L560.222 273.212L560.193 273.181C558.827 271.695 556.958 270.419 554.455 269.428L553.946 269.233L553.902 269.218L553.86 269.2C551.907 268.429 549.856 269.924 549.856 272.025V285.42C549.856 287.862 552.087 289.782 554.363 288.897C557.442 287.647 559.293 286.152 560.339 284.61L560.366 284.57L560.394 284.531C561.622 282.812 562.209 280.977 562.209 278.92L562.2 278.431ZM539.457 243.301C539.457 247.634 535.343 250.816 531.265 249.352C528.022 248.157 525.377 246.493 523.329 244.36C521.489 242.36 520.511 239.76 520.396 236.56L520.385 235.912C520.385 232.84 521.195 230.109 522.816 227.72C524.416 225.4 526.804 223.53 529.979 222.11L530.625 221.832C535.137 219.961 539.457 224.047 539.457 228.932V243.301ZM566.198 279.461C566.098 282.151 565.248 284.616 563.648 286.856C562.027 289.246 559.425 291.166 555.841 292.616L555.172 292.864C550.316 294.576 545.856 290.205 545.856 285.056V272.414C545.856 267.369 550.636 263.627 555.329 265.479C558.572 266.674 561.174 268.338 563.137 270.472C565.185 272.605 566.209 275.421 566.209 278.92L566.198 279.461ZM524.394 236.41C524.478 238.831 525.188 240.46 526.253 241.629C527.807 243.234 529.888 244.578 532.622 245.589C534.015 246.089 535.457 245.034 535.457 243.554V227.957C535.457 226.185 533.793 224.849 532.156 225.527C529.194 226.756 527.289 228.288 526.12 229.976C524.982 231.657 524.385 233.591 524.385 235.912L524.394 236.41ZM549.856 200.831C549.856 204.843 552.908 208.152 556.817 209.054C557.916 209.307 559.012 209.593 560.104 209.912C565.41 211.376 570.102 213.466 574.113 216.236C575.675 217.314 576.264 219.341 575.524 221.088L572.323 228.641C571.345 230.95 568.508 231.799 566.422 230.408C563.148 228.226 559.687 226.598 556.028 225.515L555.294 225.306L555.274 225.3C552.465 224.513 549.856 226.751 549.856 229.668V245.165C549.856 248.24 551.926 250.921 554.88 251.774C559.071 252.959 562.943 254.52 566.479 256.475C570.315 258.462 573.451 261.183 575.794 264.646C578.418 268.398 579.553 273.054 579.553 278.28L579.549 278.76C579.463 283.71 578.045 288.344 575.344 292.588L575.32 292.623C572.432 297.058 568.11 300.484 562.648 303.026L562.635 303.033L562.621 303.039C560.825 303.858 558.889 304.533 556.821 305.071C552.919 306.087 549.856 309.377 549.856 313.409V314.121C549.856 318.097 546.633 321.32 542.657 321.32C538.68 321.32 535.457 318.097 535.457 314.121V313.461C535.457 309.437 532.4 306.118 528.472 305.247C526.584 304.828 524.716 304.32 522.869 303.722L521.633 303.307L521.601 303.296L521.569 303.284C515.338 301.002 510.197 298.03 506.367 294.241L506.001 293.872C504.805 292.645 504.523 290.793 505.3 289.266L509.011 281.97C510.233 279.568 513.434 279.037 515.366 280.917C518.054 283.532 521.787 285.88 526.719 287.871C531.171 289.562 535.457 285.876 535.457 281.113V264.745C535.457 264.319 535.168 263.949 534.755 263.844L531.791 263.078L531.752 263.068L531.713 263.058C527.79 261.949 524.117 260.512 520.703 258.737L520.024 258.378L520.005 258.367L519.986 258.356C516.473 256.415 513.519 253.88 511.177 250.756L510.717 250.123L510.679 250.068L510.642 250.013C508.128 246.188 507.041 241.47 507.041 236.168C507.041 230.997 508.395 226.204 511.109 221.881L511.115 221.871L511.122 221.86C514.004 217.332 518.292 213.882 523.717 211.408C525.235 210.693 526.848 210.084 528.554 209.576C532.428 208.423 535.457 205.11 535.457 201.068V200.2C535.457 196.223 538.68 193 542.657 193C546.633 193 549.856 196.223 549.856 200.2V200.831Z" stroke="#082F49" stroke-width="4" mask="url(#path-9-outside-2_2462_1632)"/>
</svg>
