<svg width="624" height="515" viewBox="0 0 624 515" fill="none" xmlns="http://www.w3.org/2000/svg">
<path d="M238.558 510C228.309 510 220 499.385 220 486.291V28.7089C220 15.6149 228.309 5 238.558 5H540.187C545.192 5 549.985 7.58263 553.478 12.1619L613.733 91.1523C617.11 95.5797 619 101.517 619 107.699V486.291C619 499.385 610.691 510 600.442 510H238.558Z" fill="white"/>
<path d="M543.376 82.5571C543.376 95.5538 551.566 106.128 561.738 106.265L612.509 106.948C612.765 106.951 612.971 107.22 612.968 107.547C612.965 107.874 612.756 108.137 612.499 108.133L560.811 107.438C550.638 107.302 542.448 96.7275 542.448 83.7308L543.376 5.35236C543.376 5.02501 542.655 18.0399 542.912 18.0399C543.168 18.0399 543.376 18.3053 543.376 18.6326V82.5571Z" fill="currentColor"/>
<path d="M238.558 510C228.309 510 220 499.385 220 486.291V28.7089C220 15.6149 228.309 5 238.558 5H540.187C545.192 5 549.985 7.58263 553.478 12.1619L613.733 91.1523C617.11 95.5797 619 101.517 619 107.699V486.291C619 499.385 610.691 510 600.442 510H238.558Z" stroke="currentColor" stroke-width="10"/>
<path d="M543.376 82.5571C543.376 95.5538 551.566 106.128 561.738 106.265L612.509 106.948C612.765 106.951 612.971 107.22 612.968 107.547C612.965 107.874 612.756 108.137 612.499 108.133L560.811 107.438C550.638 107.302 542.448 96.7275 542.448 83.7308L543.376 5.35236C543.376 5.02501 542.655 18.0399 542.912 18.0399C543.168 18.0399 543.376 18.3053 543.376 18.6326V82.5571Z" stroke="currentColor" stroke-width="10"/>
<path d="M220 99.3223H225V94.7056L220.398 94.3381L220 99.3223ZM220 399.402V404.402H225V399.402H220ZM94.0625 399.402L94.0625 404.402H94.0625V399.402ZM5 310.34L0 310.34V310.34H5ZM94.0625 221.277V216.277H94.0625L94.0625 221.277ZM102.481 221.277V226.277H107.481V221.277H102.481ZM102.481 199H97.4814V199H102.481ZM211.93 99V104C214.512 104 217.07 104.104 219.602 104.306L220 99.3223L220.398 94.3381C217.605 94.1151 214.781 94 211.93 94V99ZM220 99.3223H215V399.402H220H225V99.3223H220ZM220 399.402V394.402H94.0625V399.402V404.402H220V399.402ZM94.0625 399.402L94.0625 394.402C47.6362 394.402 10 356.766 10 310.34H5H0C0 362.289 42.1133 404.402 94.0625 404.402L94.0625 399.402ZM5 310.34L10 310.34C10.0002 263.914 47.6363 226.278 94.0625 226.277L94.0625 221.277L94.0625 216.277C42.1135 216.278 0.000183105 258.391 0 310.34L5 310.34ZM94.0625 221.277V226.277H102.481V221.277V216.277H94.0625V221.277ZM102.481 221.277H107.481V199H102.481H97.4814V221.277H102.481ZM102.481 199H107.481C107.481 146.533 150.014 104 202.481 104V99V94C144.492 94 97.4815 141.01 97.4814 199H102.481ZM202.481 99V104H211.93V99V94H202.481V99Z" fill="currentColor"/>
<line x1="263" y1="109" x2="522" y2="109" stroke="currentColor" stroke-width="10" stroke-linecap="round"/>
<line x1="263.006" y1="162.991" x2="388.137" y2="162.991" stroke="currentColor" stroke-width="10" stroke-linecap="round"/>
<line x1="263.006" y1="137.991" x2="504.146" y2="137.991" stroke="currentColor" stroke-width="10" stroke-linecap="round"/>
<mask id="path-6-inside-1_2465_1710" fill="white">
<path d="M322 329H338V345H322V329Z"/>
<path d="M306 313H322V329H306V313Z"/>
<path d="M450 401H458V417H450V401Z"/>
<path d="M370 433H386V449H370V433Z"/>
<path d="M370 417H386V433H370V417Z"/>
<path d="M258 345H274V361H258V345Z"/>
<path d="M274 345H290V361H274V345Z"/>
<path d="M290 345H306V361H290V345Z"/>
<path d="M258 249H314V305H258V249Z"/>
<path d="M342 249H358V265H342V249Z"/>
<path d="M290 329H306V345H290V329Z"/>
<path d="M274 265H298V289H274V265Z"/>
<path d="M274 265H298V289H274V265Z"/>
<path d="M354 305H370V321H354V305Z"/>
<path d="M338 289H354V305H338V289Z"/>
<path d="M322 361H338V377H322V361Z"/>
<path d="M346 369H362V385H346V369Z"/>
<path d="M330 433H346V449H330V433Z"/>
<path d="M330 417H346V433H330V417Z"/>
<path d="M330 401H346V417H330V401Z"/>
<path d="M346 385H362V401H346V385Z"/>
<path d="M338 345H354V361H338V345Z"/>
<path d="M322 345H338V361H322V345Z"/>
<path d="M442 417H458V433H442V417Z"/>
<path d="M442 433H458V449H442V433Z"/>
<path d="M426 433H442V449H426V433Z"/>
<path d="M410 433H426V449H410V433Z"/>
<path d="M398 433H414V449H398V433Z"/>
<path d="M398 417H414V433H398V417Z"/>
<path d="M418 401H434V417H418V401Z"/>
<path d="M434 401H450V417H434V401Z"/>
<path d="M434 385H450V401H434V385Z"/>
<path d="M450 385H458V401H450V385Z"/>
<path d="M418 385H434V401H418V385Z"/>
<path d="M386 401H402V417H386V401Z"/>
<path d="M370 385H386V401H370V385Z"/>
<path d="M386 385H402V401H386V385Z"/>
<path d="M402 369H418V385H402V369Z"/>
<path d="M370 353H386V369H370V353Z"/>
<path d="M370 337H386V353H370V337Z"/>
<path d="M370 321H386V337H370V321Z"/>
<path d="M370 305H386V321H370V305Z"/>
<path d="M354 345H370V361H354V345Z"/>
<path d="M370 369H386V385H370V369Z"/>
<path d="M402 321H418V337H402V321Z"/>
<path d="M402 337H418V353H402V337Z"/>
<path d="M402 353H418V369H402V353Z"/>
<path d="M442 345H458V361H442V345Z"/>
<path d="M426 313H442V329H426V313Z"/>
<path d="M442 329H458V345H442V329Z"/>
<path d="M386 345H402V361H386V345Z"/>
<path d="M402 305H418V321H402V305Z"/>
<path d="M386 289H402V305H386V289Z"/>
<path d="M402 249H458V305H402V249Z"/>
<path d="M258 393H314V449H258V393Z"/>
<path d="M418 265H442V289H418V265Z"/>
<path d="M274 409H298V433H274V409Z"/>
</mask>
<path d="M322 329H338V345H322V329Z" fill="currentColor"/>
<path d="M306 313H322V329H306V313Z" fill="currentColor"/>
<path d="M450 401H458V417H450V401Z" fill="currentColor"/>
<path d="M370 433H386V449H370V433Z" fill="currentColor"/>
<path d="M370 417H386V433H370V417Z" fill="currentColor"/>
<path d="M258 345H274V361H258V345Z" fill="currentColor"/>
<path d="M274 345H290V361H274V345Z" fill="currentColor"/>
<path d="M290 345H306V361H290V345Z" fill="currentColor"/>
<path d="M258 249H314V305H258V249Z" fill="currentColor"/>
<path d="M342 249H358V265H342V249Z" fill="currentColor"/>
<path d="M290 329H306V345H290V329Z" fill="currentColor"/>
<path d="M274 265H298V289H274V265Z" fill="white"/>
<path d="M274 265H298V289H274V265Z" fill="white"/>
<path d="M354 305H370V321H354V305Z" fill="currentColor"/>
<path d="M338 289H354V305H338V289Z" fill="currentColor"/>
<path d="M322 361H338V377H322V361Z" fill="currentColor"/>
<path d="M346 369H362V385H346V369Z" fill="currentColor"/>
<path d="M330 433H346V449H330V433Z" fill="currentColor"/>
<path d="M330 417H346V433H330V417Z" fill="currentColor"/>
<path d="M330 401H346V417H330V401Z" fill="currentColor"/>
<path d="M346 385H362V401H346V385Z" fill="currentColor"/>
<path d="M338 345H354V361H338V345Z" fill="currentColor"/>
<path d="M322 345H338V361H322V345Z" fill="currentColor"/>
<path d="M442 417H458V433H442V417Z" fill="currentColor"/>
<path d="M442 433H458V449H442V433Z" fill="currentColor"/>
<path d="M426 433H442V449H426V433Z" fill="currentColor"/>
<path d="M410 433H426V449H410V433Z" fill="currentColor"/>
<path d="M398 433H414V449H398V433Z" fill="currentColor"/>
<path d="M398 417H414V433H398V417Z" fill="currentColor"/>
<path d="M418 401H434V417H418V401Z" fill="currentColor"/>
<path d="M434 401H450V417H434V401Z" fill="currentColor"/>
<path d="M434 385H450V401H434V385Z" fill="currentColor"/>
<path d="M450 385H458V401H450V385Z" fill="currentColor"/>
<path d="M418 385H434V401H418V385Z" fill="currentColor"/>
<path d="M386 401H402V417H386V401Z" fill="currentColor"/>
<path d="M370 385H386V401H370V385Z" fill="currentColor"/>
<path d="M386 385H402V401H386V385Z" fill="currentColor"/>
<path d="M402 369H418V385H402V369Z" fill="currentColor"/>
<path d="M370 353H386V369H370V353Z" fill="currentColor"/>
<path d="M370 337H386V353H370V337Z" fill="currentColor"/>
<path d="M370 321H386V337H370V321Z" fill="currentColor"/>
<path d="M370 305H386V321H370V305Z" fill="currentColor"/>
<path d="M354 345H370V361H354V345Z" fill="currentColor"/>
<path d="M370 369H386V385H370V369Z" fill="currentColor"/>
<path d="M402 321H418V337H402V321Z" fill="currentColor"/>
<path d="M402 337H418V353H402V337Z" fill="currentColor"/>
<path d="M402 353H418V369H402V353Z" fill="currentColor"/>
<path d="M442 345H458V361H442V345Z" fill="currentColor"/>
<path d="M426 313H442V329H426V313Z" fill="currentColor"/>
<path d="M442 329H458V345H442V329Z" fill="currentColor"/>
<path d="M386 345H402V361H386V345Z" fill="currentColor"/>
<path d="M402 305H418V321H402V305Z" fill="currentColor"/>
<path d="M386 289H402V305H386V289Z" fill="currentColor"/>
<path d="M402 249H458V305H402V249Z" fill="currentColor"/>
<path d="M258 393H314V449H258V393Z" fill="currentColor"/>
<path d="M418 265H442V289H418V265Z" fill="white"/>
<path d="M274 409H298V433H274V409Z" fill="white"/>
<path d="M338 345H338.5V344.5H338V345ZM290 345V344.5H289.5V345H290ZM274 265V264.5H273.5V265H274ZM298 265H298.5V264.5H298V265ZM298 289V289.5H298.5V289H298ZM274 289H273.5V289.5H274V289ZM370 321H369.5V321.5H370V321ZM338 361V361.5H338.5V361H338ZM442 433V432.5H441.5V433H442ZM386 401H385.5V401.5H386V401ZM386 385H386.5V384.5H386V385ZM338 345V344.5H322V345V345.5H338V345ZM450 401V401.5H458V401V400.5H450V401ZM450 417H450.5V401H450H449.5V417H450ZM370 433V433.5H386V433V432.5H370V433ZM274 345H273.5V361H274H274.5V345H274ZM290 345H289.5V361H290H290.5V345H290ZM290 345V345.5H306V345V344.5H290V345ZM274 265V265.5H298V265V264.5H274V265ZM298 265H297.5V289H298H298.5V265H298ZM298 289V288.5H274V289V289.5H298V289ZM274 289H274.5V265H274H273.5V289H274ZM370 305H369.5V321H370H370.5V305H370ZM322 361V361.5H338V361V360.5H322V361ZM362 385V384.5H346V385V385.5H362V385ZM330 433V433.5H346V433V432.5H330V433ZM330 417V417.5H346V417V416.5H330V417ZM354 345H353.5V361H354H354.5V345H354ZM338 361H338.5V345H338H337.5V361H338ZM458 433V432.5H442V433V433.5H458V433ZM442 449H442.5V433H442H441.5V449H442ZM426 449H426.5V433H426H425.5V449H426ZM398 433V433.5H414V433V432.5H398V433ZM418 401V401.5H434V401V400.5H418V401ZM434 401H433.5V417H434H434.5V401H434ZM434 401V401.5H450V401V400.5H434V401ZM450 385H449.5V401H450H450.5V385H450ZM434 401H434.5V385H434H433.5V401H434ZM386 401V401.5H402V401V400.5H386V401ZM370 385V385.5H386V385V384.5H370V385ZM386 385H385.5V401H386H386.5V385H386ZM402 369V369.5H418V369V368.5H402V369ZM370 353V353.5H386V353V352.5H370V353ZM386 369V368.5H370V369V369.5H386V369ZM370 337V337.5H386V337V336.5H370V337ZM370 321V321.5H386V321V320.5H370V321ZM402 321V321.5H418V321V320.5H402V321ZM418 337V336.5H402V337V337.5H418V337ZM418 353V352.5H402V353V353.5H418V353ZM442 345V345.5H458V345V344.5H442V345ZM338 329H339V328H338V329ZM338 345H337V346H338V345ZM306 313V312H305V313H306ZM322 313H323V312H322V313ZM386 449V450H387V449H386ZM370 449H369V450H370V449ZM370 417V416H369V417H370ZM258 345V344H257V345H258ZM258 361H257V362H258V361ZM290 345V346H291V345H290ZM306 361V362H307V361H306ZM258 249V248H257V249H258ZM314 249H315V248H314V249ZM314 305V306H315V305H314ZM258 305H257V306H258V305ZM342 249V248H341V249H342ZM358 249H359V248H358V249ZM358 265V266H359V265H358ZM342 265H341V266H342V265ZM290 329V328H289V329H290ZM370 321H371V320H370V321ZM354 321H353V322H354V321ZM338 289V288H337V289H338ZM354 289H355V288H354V289ZM338 305H337V306H338V305ZM338 361V360H337V361H338ZM338 377V378H339V377H338ZM322 377H321V378H322V377ZM346 369V368H345V369H346ZM362 369H363V368H362V369ZM346 449V450H347V449H346ZM330 449H329V450H330V449ZM330 401V400H329V401H330ZM362 401V402H363V401H362ZM442 417V416H441V417H442ZM442 433V434H443V433H442ZM458 449V450H459V449H458ZM410 433V432H409V433H410ZM410 449H409V450H410V449ZM414 449V450H415V449H414ZM398 449H397V450H398V449ZM398 417V416H397V417H398ZM414 417H415V416H414V417ZM418 417H417V418H418V417ZM458 385H459V384H458V385ZM386 401H387V400H386V401ZM402 417V418H403V417H402ZM386 385H385V386H386V385ZM370 401H369V402H370V401ZM370 345H371V344H370V345ZM370 361V362H371V361H370ZM458 361V362H459V361H458ZM442 361H441V362H442V361ZM426 313V312H425V313H426ZM442 313H443V312H442V313ZM426 329H425V330H426V329ZM458 329H459V328H458V329ZM386 345V344H385V345H386ZM402 345H403V344H402V345ZM402 361V362H403V361H402ZM386 361H385V362H386V361ZM418 305H419V304H418V305ZM386 289V288H385V289H386ZM402 289H403V288H402V289ZM402 249V248H401V249H402ZM458 249H459V248H458V249ZM458 305V306H459V305H458ZM258 393V392H257V393H258ZM314 393H315V392H314V393ZM314 449V450H315V449H314ZM258 449H257V450H258V449ZM418 265V264H417V265H418ZM442 265H443V264H442V265ZM442 289V290H443V289H442ZM418 289H417V290H418V289ZM274 409V408H273V409H274ZM298 409H299V408H298V409ZM298 433V434H299V433H298ZM274 433H273V434H274V433ZM322 329V330H338V329V328H322V329ZM338 329H337V345H338H339V329H338ZM322 345H323V329H322H321V345H322ZM306 313V314H322V313V312H306V313ZM322 313H321V329H322H323V313H322ZM322 329V328H306V329V330H322V329ZM306 329H307V313H306H305V329H306ZM458 401H457V417H458H459V401H458ZM458 417V416H450V417V418H458V417ZM386 433H385V449H386H387V433H386ZM386 449V448H370V449V450H386V449ZM370 449H371V433H370H369V449H370ZM370 417V418H386V417V416H370V417ZM386 417H385V433H386H387V417H386ZM370 433H371V417H370H369V433H370ZM258 345V346H274V345V344H258V345ZM274 361V360H258V361V362H274V361ZM258 361H259V345H258H257V361H258ZM274 345V346H290V345V344H274V345ZM290 361V360H274V361V362H290V361ZM306 345H305V361H306H307V345H306ZM306 361V360H290V361V362H306V361ZM258 249V250H314V249V248H258V249ZM314 249H313V305H314H315V249H314ZM314 305V304H258V305V306H314V305ZM258 305H259V249H258H257V305H258ZM342 249V250H358V249V248H342V249ZM358 249H357V265H358H359V249H358ZM358 265V264H342V265V266H358V265ZM342 265H343V249H342H341V265H342ZM290 329V330H306V329V328H290V329ZM306 329H305V345H306H307V329H306ZM290 345H291V329H290H289V345H290ZM354 305V306H370V305V304H354V305ZM370 321V320H354V321V322H370V321ZM354 321H355V305H354H353V321H354ZM338 289V290H354V289V288H338V289ZM354 289H353V305H354H355V289H354ZM354 305V304H338V305V306H354V305ZM338 305H339V289H338H337V305H338ZM338 361H337V377H338H339V361H338ZM338 377V376H322V377V378H338V377ZM322 377H323V361H322H321V377H322ZM346 369V370H362V369V368H346V369ZM362 369H361V385H362H363V369H362ZM346 385H347V369H346H345V385H346ZM346 433H345V449H346H347V433H346ZM346 449V448H330V449V450H346V449ZM330 449H331V433H330H329V449H330ZM346 417H345V433H346H347V417H346ZM330 433H331V417H330H329V433H330ZM330 401V402H346V401V400H330V401ZM346 401H345V417H346H347V401H346ZM330 417H331V401H330H329V417H330ZM362 385H361V401H362H363V385H362ZM362 401V400H346V401V402H362V401ZM346 401H347V385H346H345V401H346ZM338 345V346H354V345V344H338V345ZM354 361V360H338V361V362H354V361ZM322 361H323V345H322H321V361H322ZM442 417V418H458V417V416H442V417ZM458 417H457V433H458H459V417H458ZM442 433H443V417H442H441V433H442ZM458 433H457V449H458H459V433H458ZM458 449V448H442V449V450H458V449ZM426 433V434H442V433V432H426V433ZM442 449V448H426V449V450H442V449ZM410 433V434H426V433V432H410V433ZM426 449V448H410V449V450H426V449ZM410 449H411V433H410H409V449H410ZM414 433H413V449H414H415V433H414ZM414 449V448H398V449V450H414V449ZM398 449H399V433H398H397V449H398ZM398 417V418H414V417V416H398V417ZM414 417H413V433H414H415V417H414ZM398 433H399V417H398H397V433H398ZM434 417V416H418V417V418H434V417ZM418 417H419V401H418H417V417H418ZM450 417V416H434V417V418H450V417ZM434 385V386H450V385V384H434V385ZM450 385V386H458V385V384H450V385ZM458 385H457V401H458H459V385H458ZM418 385V386H434V385V384H418V385ZM418 401H419V385H418H417V401H418ZM402 401H401V417H402H403V401H402ZM402 417V416H386V417V418H402V417ZM386 417H387V401H386H385V417H386ZM386 401V400H370V401V402H386V401ZM370 401H371V385H370H369V401H370ZM386 385V386H402V385V384H386V385ZM402 385H401V401H402H403V385H402ZM418 369H417V385H418H419V369H418ZM418 385V384H402V385V386H418V385ZM402 385H403V369H402H401V385H402ZM386 353H385V369H386H387V353H386ZM370 369H371V353H370H369V369H370ZM386 337H385V353H386H387V337H386ZM370 353H371V337H370H369V353H370ZM386 321H385V337H386H387V321H386ZM370 337H371V321H370H369V337H370ZM370 305V306H386V305V304H370V305ZM386 305H385V321H386H387V305H386ZM354 345V346H370V345V344H354V345ZM370 345H369V361H370H371V345H370ZM370 361V360H354V361V362H370V361ZM386 369H385V385H386H387V369H386ZM370 385H371V369H370H369V385H370ZM418 321H417V337H418H419V321H418ZM402 337H403V321H402H401V337H402ZM418 337H417V353H418H419V337H418ZM402 353H403V337H402H401V353H402ZM418 353H417V369H418H419V353H418ZM402 369H403V353H402H401V369H402ZM458 345H457V361H458H459V345H458ZM458 361V360H442V361V362H458V361ZM442 361H443V345H442H441V361H442ZM426 313V314H442V313V312H426V313ZM442 313H441V329H442H443V313H442ZM442 329V328H426V329V330H442V329ZM426 329H427V313H426H425V329H426ZM442 329V330H458V329V328H442V329ZM458 329H457V345H458H459V329H458ZM442 345H443V329H442H441V345H442ZM386 345V346H402V345V344H386V345ZM402 345H401V361H402H403V345H402ZM402 361V360H386V361V362H402V361ZM386 361H387V345H386H385V361H386ZM402 305V306H418V305V304H402V305ZM418 305H417V321H418H419V305H418ZM402 321H403V305H402H401V321H402ZM386 289V290H402V289V288H386V289ZM402 289H401V305H402H403V289H402ZM402 305V304H386V305V306H402V305ZM386 305H387V289H386H385V305H386ZM402 249V250H458V249V248H402V249ZM458 249H457V305H458H459V249H458ZM458 305V304H402V305V306H458V305ZM402 305H403V249H402H401V305H402ZM258 393V394H314V393V392H258V393ZM314 393H313V449H314H315V393H314ZM314 449V448H258V449V450H314V449ZM258 449H259V393H258H257V449H258ZM418 265V266H442V265V264H418V265ZM442 265H441V289H442H443V265H442ZM442 289V288H418V289V290H442V289ZM418 289H419V265H418H417V289H418ZM274 409V410H298V409V408H274V409ZM298 409H297V433H298H299V409H298ZM298 433V432H274V433V434H298V433ZM274 433H275V409H274H273V433H274Z" fill="currentColor" mask="url(#path-6-inside-1_2465_1710)"/>
<path d="M551.857 196V210.665C556.038 210.885 560.188 211.598 564.306 212.804C569.345 214.194 573.718 216.157 577.409 218.705L578.08 219.168L577.761 219.918L574.561 227.47L574.09 228.582L573.086 227.912C569.333 225.41 565.335 223.578 561.088 222.412L561.083 222.411C557.929 221.528 554.854 220.98 551.857 220.763V252.692C554.278 253.316 556.682 253.973 559.07 254.663H559.069C563.048 255.788 566.694 257.261 570.001 259.086L570.643 259.427C573.807 261.165 576.364 263.46 578.297 266.312L578.5 266.606C580.562 269.68 581.553 273.597 581.553 278.28C581.553 282.827 580.301 287.065 577.812 290.977L577.807 290.985C575.293 294.846 571.46 297.943 566.382 300.307L566.375 300.31C562.395 302.125 557.547 303.203 551.857 303.576V318.32H543.457V303.617C538.006 303.293 532.725 302.246 527.617 300.473L527.601 300.467C521.449 298.214 516.611 295.33 513.149 291.778L512.649 291.265L512.973 290.627L516.685 283.33L517.301 282.12L518.274 283.067C521.312 286.023 525.409 288.56 530.604 290.657C534.732 292.23 539.016 293.183 543.457 293.521V261.685C541.487 261.192 539.518 260.69 537.548 260.176L537.529 260.17C533.539 259.042 529.844 257.565 526.447 255.736L526.437 255.731C523.068 253.87 520.306 251.423 518.167 248.393L518.158 248.379L518.149 248.365C516.049 245.169 515.041 241.077 515.041 236.168C515.041 231.547 516.243 227.309 518.65 223.477L518.653 223.471C521.165 219.523 524.958 216.421 529.961 214.139C533.719 212.361 538.224 211.263 543.457 210.819V196H551.857ZM551.857 293.48C555.273 293.199 558.141 292.596 560.477 291.685C563.932 290.284 566.344 288.471 567.821 286.295L567.828 286.284L567.835 286.274C569.422 284.053 570.208 281.61 570.208 278.92C570.208 275.629 569.253 273.078 567.416 271.164L567.408 271.157L567.401 271.149C565.564 269.153 563.105 267.568 559.983 266.418L559.961 266.41C557.471 265.427 554.77 264.545 551.857 263.763V293.48ZM543.457 220.948C540.587 221.278 538.107 221.885 536.007 222.756C532.641 224.152 530.212 226.009 528.64 228.288L528.639 228.287C527.14 230.498 526.384 233.03 526.384 235.912C526.384 239.21 527.304 241.764 529.058 243.675C530.982 245.677 533.486 247.262 536.603 248.411L537.85 248.848C539.634 249.457 541.503 250.029 543.457 250.568V220.948Z" fill="currentColor" stroke="currentColor" stroke-width="2"/>
<mask id="path-9-outside-2_2465_1710" maskUnits="userSpaceOnUse" x="507" y="191" width="80" height="133" fill="black">
<rect fill="white" x="507" y="191" width="80" height="133"/>
<path d="M547.657 197C545.89 197 544.457 198.433 544.457 200.2V204.628C544.457 208.637 541.327 211.866 537.409 212.717C534.812 213.28 532.468 214.057 530.377 215.048C525.513 217.266 521.886 220.253 519.497 224.008C517.193 227.677 516.041 231.731 516.041 236.168L516.052 237.054C516.167 241.429 517.144 245.016 518.984 247.816C521.032 250.718 523.678 253.064 526.921 254.856C530.249 256.648 533.876 258.099 537.801 259.208C541.705 260.227 544.457 263.734 544.457 267.77V280.009C544.457 287.931 537.652 294.412 530.249 291.592C527.012 290.287 524.175 288.806 521.736 287.15C519.536 285.655 516.353 286.189 515.146 288.56C514.38 290.067 514.642 291.915 515.946 292.991C519.057 295.559 523.056 297.738 527.944 299.528C531.01 300.593 534.14 301.391 537.334 301.924C541.287 302.583 544.457 305.826 544.457 309.833V314.121C544.457 315.888 545.89 317.32 547.657 317.32C549.424 317.32 550.856 315.888 550.856 314.121V309.789C550.856 305.779 554.019 302.559 557.962 301.83C560.76 301.313 563.273 300.571 565.501 299.604L565.961 299.4C570.91 297.096 574.579 294.11 576.969 290.44C579.209 286.921 580.399 283.138 580.539 279.093L580.553 278.28C580.553 273.587 579.528 269.789 577.48 266.888C575.64 264.168 573.2 261.973 570.16 260.303L569.545 259.976C566.302 258.184 562.718 256.733 558.793 255.624C554.145 254.281 550.856 250.083 550.856 245.244V230.365C550.856 224.559 555.761 219.883 561.353 221.448C564.148 222.216 566.839 223.265 569.423 224.596C571.684 225.76 574.559 224.913 575.551 222.571C576.302 220.799 575.715 218.723 574.036 217.782C571.089 216.131 567.758 214.793 564.041 213.768C562.034 213.179 560.02 212.711 557.999 212.361C554.05 211.678 550.856 208.445 550.856 204.437V200.2C550.856 198.433 549.424 197 547.657 197ZM567.2 278.431C567.119 276.194 566.475 274.637 565.472 273.483L565.251 273.242L565.222 273.212L565.193 273.181C563.827 271.695 561.958 270.419 559.455 269.428L558.946 269.233L558.902 269.218L558.86 269.2C556.907 268.429 554.856 269.924 554.856 272.025V285.42C554.856 287.862 557.087 289.782 559.363 288.897C562.442 287.647 564.293 286.152 565.339 284.61L565.366 284.57L565.394 284.531C566.622 282.812 567.209 280.977 567.209 278.92L567.2 278.431ZM544.457 243.301C544.457 247.634 540.343 250.816 536.265 249.352C533.022 248.157 530.377 246.493 528.329 244.36C526.489 242.36 525.511 239.76 525.396 236.56L525.385 235.912C525.385 232.84 526.195 230.109 527.816 227.72C529.416 225.4 531.804 223.53 534.979 222.11L535.625 221.832C540.137 219.961 544.457 224.047 544.457 228.932V243.301ZM571.198 279.461C571.098 282.151 570.248 284.616 568.648 286.856C567.027 289.246 564.425 291.166 560.841 292.616L560.172 292.864C555.316 294.576 550.856 290.205 550.856 285.056V272.414C550.856 267.369 555.636 263.627 560.329 265.479C563.572 266.674 566.174 268.338 568.137 270.472C570.185 272.605 571.209 275.421 571.209 278.92L571.198 279.461ZM529.394 236.41C529.478 238.831 530.188 240.46 531.253 241.629C532.807 243.234 534.888 244.578 537.622 245.589C539.015 246.089 540.457 245.034 540.457 243.554V227.957C540.457 226.185 538.793 224.849 537.156 225.527C534.194 226.756 532.289 228.288 531.12 229.976C529.982 231.657 529.385 233.591 529.385 235.912L529.394 236.41ZM554.856 200.831C554.856 204.843 557.908 208.152 561.817 209.054C562.916 209.307 564.012 209.593 565.104 209.912C570.41 211.376 575.102 213.466 579.113 216.236C580.675 217.314 581.264 219.341 580.524 221.088L577.323 228.641C576.345 230.95 573.508 231.799 571.422 230.408C568.148 228.226 564.687 226.598 561.028 225.515L560.294 225.306L560.274 225.3C557.465 224.513 554.856 226.751 554.856 229.668V245.165C554.856 248.24 556.926 250.921 559.88 251.774C564.071 252.959 567.943 254.52 571.479 256.475C575.315 258.462 578.451 261.183 580.794 264.646C583.418 268.398 584.553 273.054 584.553 278.28L584.549 278.76C584.463 283.71 583.045 288.344 580.344 292.588L580.32 292.623C577.432 297.058 573.11 300.484 567.648 303.026L567.635 303.033L567.621 303.039C565.825 303.858 563.889 304.533 561.821 305.071C557.919 306.087 554.856 309.377 554.856 313.409V314.121C554.856 318.097 551.633 321.32 547.657 321.32C543.68 321.32 540.457 318.097 540.457 314.121V313.461C540.457 309.437 537.4 306.118 533.472 305.247C531.584 304.828 529.716 304.32 527.869 303.722L526.633 303.307L526.601 303.296L526.569 303.284C520.338 301.002 515.197 298.03 511.367 294.241L511.001 293.872C509.805 292.645 509.523 290.793 510.3 289.266L514.011 281.97C515.233 279.568 518.434 279.037 520.366 280.917C523.054 283.532 526.787 285.88 531.719 287.871C536.171 289.562 540.457 285.876 540.457 281.113V264.745C540.457 264.319 540.168 263.949 539.755 263.844L536.791 263.078L536.752 263.068L536.713 263.058C532.79 261.949 529.117 260.512 525.703 258.737L525.024 258.378L525.005 258.367L524.986 258.356C521.473 256.415 518.519 253.88 516.177 250.756L515.717 250.123L515.679 250.068L515.642 250.013C513.128 246.188 512.041 241.47 512.041 236.168C512.041 230.997 513.395 226.204 516.109 221.881L516.115 221.871L516.122 221.86C519.004 217.332 523.292 213.882 528.717 211.408C530.235 210.693 531.848 210.084 533.554 209.576C537.428 208.423 540.457 205.11 540.457 201.068V200.2C540.457 196.223 543.68 193 547.657 193C551.633 193 554.856 196.223 554.856 200.2V200.831Z"/>
</mask>
<path d="M547.657 197C545.89 197 544.457 198.433 544.457 200.2V204.628C544.457 208.637 541.327 211.866 537.409 212.717C534.812 213.28 532.468 214.057 530.377 215.048C525.513 217.266 521.886 220.253 519.497 224.008C517.193 227.677 516.041 231.731 516.041 236.168L516.052 237.054C516.167 241.429 517.144 245.016 518.984 247.816C521.032 250.718 523.678 253.064 526.921 254.856C530.249 256.648 533.876 258.099 537.801 259.208C541.705 260.227 544.457 263.734 544.457 267.77V280.009C544.457 287.931 537.652 294.412 530.249 291.592C527.012 290.287 524.175 288.806 521.736 287.15C519.536 285.655 516.353 286.189 515.146 288.56C514.38 290.067 514.642 291.915 515.946 292.991C519.057 295.559 523.056 297.738 527.944 299.528C531.01 300.593 534.14 301.391 537.334 301.924C541.287 302.583 544.457 305.826 544.457 309.833V314.121C544.457 315.888 545.89 317.32 547.657 317.32C549.424 317.32 550.856 315.888 550.856 314.121V309.789C550.856 305.779 554.019 302.559 557.962 301.83C560.76 301.313 563.273 300.571 565.501 299.604L565.961 299.4C570.91 297.096 574.579 294.11 576.969 290.44C579.209 286.921 580.399 283.138 580.539 279.093L580.553 278.28C580.553 273.587 579.528 269.789 577.48 266.888C575.64 264.168 573.2 261.973 570.16 260.303L569.545 259.976C566.302 258.184 562.718 256.733 558.793 255.624C554.145 254.281 550.856 250.083 550.856 245.244V230.365C550.856 224.559 555.761 219.883 561.353 221.448C564.148 222.216 566.839 223.265 569.423 224.596C571.684 225.76 574.559 224.913 575.551 222.571C576.302 220.799 575.715 218.723 574.036 217.782C571.089 216.131 567.758 214.793 564.041 213.768C562.034 213.179 560.02 212.711 557.999 212.361C554.05 211.678 550.856 208.445 550.856 204.437V200.2C550.856 198.433 549.424 197 547.657 197ZM567.2 278.431C567.119 276.194 566.475 274.637 565.472 273.483L565.251 273.242L565.222 273.212L565.193 273.181C563.827 271.695 561.958 270.419 559.455 269.428L558.946 269.233L558.902 269.218L558.86 269.2C556.907 268.429 554.856 269.924 554.856 272.025V285.42C554.856 287.862 557.087 289.782 559.363 288.897C562.442 287.647 564.293 286.152 565.339 284.61L565.366 284.57L565.394 284.531C566.622 282.812 567.209 280.977 567.209 278.92L567.2 278.431ZM544.457 243.301C544.457 247.634 540.343 250.816 536.265 249.352C533.022 248.157 530.377 246.493 528.329 244.36C526.489 242.36 525.511 239.76 525.396 236.56L525.385 235.912C525.385 232.84 526.195 230.109 527.816 227.72C529.416 225.4 531.804 223.53 534.979 222.11L535.625 221.832C540.137 219.961 544.457 224.047 544.457 228.932V243.301ZM571.198 279.461C571.098 282.151 570.248 284.616 568.648 286.856C567.027 289.246 564.425 291.166 560.841 292.616L560.172 292.864C555.316 294.576 550.856 290.205 550.856 285.056V272.414C550.856 267.369 555.636 263.627 560.329 265.479C563.572 266.674 566.174 268.338 568.137 270.472C570.185 272.605 571.209 275.421 571.209 278.92L571.198 279.461ZM529.394 236.41C529.478 238.831 530.188 240.46 531.253 241.629C532.807 243.234 534.888 244.578 537.622 245.589C539.015 246.089 540.457 245.034 540.457 243.554V227.957C540.457 226.185 538.793 224.849 537.156 225.527C534.194 226.756 532.289 228.288 531.12 229.976C529.982 231.657 529.385 233.591 529.385 235.912L529.394 236.41ZM554.856 200.831C554.856 204.843 557.908 208.152 561.817 209.054C562.916 209.307 564.012 209.593 565.104 209.912C570.41 211.376 575.102 213.466 579.113 216.236C580.675 217.314 581.264 219.341 580.524 221.088L577.323 228.641C576.345 230.95 573.508 231.799 571.422 230.408C568.148 228.226 564.687 226.598 561.028 225.515L560.294 225.306L560.274 225.3C557.465 224.513 554.856 226.751 554.856 229.668V245.165C554.856 248.24 556.926 250.921 559.88 251.774C564.071 252.959 567.943 254.52 571.479 256.475C575.315 258.462 578.451 261.183 580.794 264.646C583.418 268.398 584.553 273.054 584.553 278.28L584.549 278.76C584.463 283.71 583.045 288.344 580.344 292.588L580.32 292.623C577.432 297.058 573.11 300.484 567.648 303.026L567.635 303.033L567.621 303.039C565.825 303.858 563.889 304.533 561.821 305.071C557.919 306.087 554.856 309.377 554.856 313.409V314.121C554.856 318.097 551.633 321.32 547.657 321.32C543.68 321.32 540.457 318.097 540.457 314.121V313.461C540.457 309.437 537.4 306.118 533.472 305.247C531.584 304.828 529.716 304.32 527.869 303.722L526.633 303.307L526.601 303.296L526.569 303.284C520.338 301.002 515.197 298.03 511.367 294.241L511.001 293.872C509.805 292.645 509.523 290.793 510.3 289.266L514.011 281.97C515.233 279.568 518.434 279.037 520.366 280.917C523.054 283.532 526.787 285.88 531.719 287.871C536.171 289.562 540.457 285.876 540.457 281.113V264.745C540.457 264.319 540.168 263.949 539.755 263.844L536.791 263.078L536.752 263.068L536.713 263.058C532.79 261.949 529.117 260.512 525.703 258.737L525.024 258.378L525.005 258.367L524.986 258.356C521.473 256.415 518.519 253.88 516.177 250.756L515.717 250.123L515.679 250.068L515.642 250.013C513.128 246.188 512.041 241.47 512.041 236.168C512.041 230.997 513.395 226.204 516.109 221.881L516.115 221.871L516.122 221.86C519.004 217.332 523.292 213.882 528.717 211.408C530.235 210.693 531.848 210.084 533.554 209.576C537.428 208.423 540.457 205.11 540.457 201.068V200.2C540.457 196.223 543.68 193 547.657 193C551.633 193 554.856 196.223 554.856 200.2V200.831Z" fill="currentColor"/>
<path d="M547.657 197C545.89 197 544.457 198.433 544.457 200.2V204.628C544.457 208.637 541.327 211.866 537.409 212.717C534.812 213.28 532.468 214.057 530.377 215.048C525.513 217.266 521.886 220.253 519.497 224.008C517.193 227.677 516.041 231.731 516.041 236.168L516.052 237.054C516.167 241.429 517.144 245.016 518.984 247.816C521.032 250.718 523.678 253.064 526.921 254.856C530.249 256.648 533.876 258.099 537.801 259.208C541.705 260.227 544.457 263.734 544.457 267.77V280.009C544.457 287.931 537.652 294.412 530.249 291.592C527.012 290.287 524.175 288.806 521.736 287.15C519.536 285.655 516.353 286.189 515.146 288.56C514.38 290.067 514.642 291.915 515.946 292.991C519.057 295.559 523.056 297.738 527.944 299.528C531.01 300.593 534.14 301.391 537.334 301.924C541.287 302.583 544.457 305.826 544.457 309.833V314.121C544.457 315.888 545.89 317.32 547.657 317.32C549.424 317.32 550.856 315.888 550.856 314.121V309.789C550.856 305.779 554.019 302.559 557.962 301.83C560.76 301.313 563.273 300.571 565.501 299.604L565.961 299.4C570.91 297.096 574.579 294.11 576.969 290.44C579.209 286.921 580.399 283.138 580.539 279.093L580.553 278.28C580.553 273.587 579.528 269.789 577.48 266.888C575.64 264.168 573.2 261.973 570.16 260.303L569.545 259.976C566.302 258.184 562.718 256.733 558.793 255.624C554.145 254.281 550.856 250.083 550.856 245.244V230.365C550.856 224.559 555.761 219.883 561.353 221.448C564.148 222.216 566.839 223.265 569.423 224.596C571.684 225.76 574.559 224.913 575.551 222.571C576.302 220.799 575.715 218.723 574.036 217.782C571.089 216.131 567.758 214.793 564.041 213.768C562.034 213.179 560.02 212.711 557.999 212.361C554.05 211.678 550.856 208.445 550.856 204.437V200.2C550.856 198.433 549.424 197 547.657 197ZM567.2 278.431C567.119 276.194 566.475 274.637 565.472 273.483L565.251 273.242L565.222 273.212L565.193 273.181C563.827 271.695 561.958 270.419 559.455 269.428L558.946 269.233L558.902 269.218L558.86 269.2C556.907 268.429 554.856 269.924 554.856 272.025V285.42C554.856 287.862 557.087 289.782 559.363 288.897C562.442 287.647 564.293 286.152 565.339 284.61L565.366 284.57L565.394 284.531C566.622 282.812 567.209 280.977 567.209 278.92L567.2 278.431ZM544.457 243.301C544.457 247.634 540.343 250.816 536.265 249.352C533.022 248.157 530.377 246.493 528.329 244.36C526.489 242.36 525.511 239.76 525.396 236.56L525.385 235.912C525.385 232.84 526.195 230.109 527.816 227.72C529.416 225.4 531.804 223.53 534.979 222.11L535.625 221.832C540.137 219.961 544.457 224.047 544.457 228.932V243.301ZM571.198 279.461C571.098 282.151 570.248 284.616 568.648 286.856C567.027 289.246 564.425 291.166 560.841 292.616L560.172 292.864C555.316 294.576 550.856 290.205 550.856 285.056V272.414C550.856 267.369 555.636 263.627 560.329 265.479C563.572 266.674 566.174 268.338 568.137 270.472C570.185 272.605 571.209 275.421 571.209 278.92L571.198 279.461ZM529.394 236.41C529.478 238.831 530.188 240.46 531.253 241.629C532.807 243.234 534.888 244.578 537.622 245.589C539.015 246.089 540.457 245.034 540.457 243.554V227.957C540.457 226.185 538.793 224.849 537.156 225.527C534.194 226.756 532.289 228.288 531.12 229.976C529.982 231.657 529.385 233.591 529.385 235.912L529.394 236.41ZM554.856 200.831C554.856 204.843 557.908 208.152 561.817 209.054C562.916 209.307 564.012 209.593 565.104 209.912C570.41 211.376 575.102 213.466 579.113 216.236C580.675 217.314 581.264 219.341 580.524 221.088L577.323 228.641C576.345 230.95 573.508 231.799 571.422 230.408C568.148 228.226 564.687 226.598 561.028 225.515L560.294 225.306L560.274 225.3C557.465 224.513 554.856 226.751 554.856 229.668V245.165C554.856 248.24 556.926 250.921 559.88 251.774C564.071 252.959 567.943 254.52 571.479 256.475C575.315 258.462 578.451 261.183 580.794 264.646C583.418 268.398 584.553 273.054 584.553 278.28L584.549 278.76C584.463 283.71 583.045 288.344 580.344 292.588L580.32 292.623C577.432 297.058 573.11 300.484 567.648 303.026L567.635 303.033L567.621 303.039C565.825 303.858 563.889 304.533 561.821 305.071C557.919 306.087 554.856 309.377 554.856 313.409V314.121C554.856 318.097 551.633 321.32 547.657 321.32C543.68 321.32 540.457 318.097 540.457 314.121V313.461C540.457 309.437 537.4 306.118 533.472 305.247C531.584 304.828 529.716 304.32 527.869 303.722L526.633 303.307L526.601 303.296L526.569 303.284C520.338 301.002 515.197 298.03 511.367 294.241L511.001 293.872C509.805 292.645 509.523 290.793 510.3 289.266L514.011 281.97C515.233 279.568 518.434 279.037 520.366 280.917C523.054 283.532 526.787 285.88 531.719 287.871C536.171 289.562 540.457 285.876 540.457 281.113V264.745C540.457 264.319 540.168 263.949 539.755 263.844L536.791 263.078L536.752 263.068L536.713 263.058C532.79 261.949 529.117 260.512 525.703 258.737L525.024 258.378L525.005 258.367L524.986 258.356C521.473 256.415 518.519 253.88 516.177 250.756L515.717 250.123L515.679 250.068L515.642 250.013C513.128 246.188 512.041 241.47 512.041 236.168C512.041 230.997 513.395 226.204 516.109 221.881L516.115 221.871L516.122 221.86C519.004 217.332 523.292 213.882 528.717 211.408C530.235 210.693 531.848 210.084 533.554 209.576C537.428 208.423 540.457 205.11 540.457 201.068V200.2C540.457 196.223 543.68 193 547.657 193C551.633 193 554.856 196.223 554.856 200.2V200.831Z" stroke="currentColor" stroke-width="4" mask="url(#path-9-outside-2_2465_1710)"/>
</svg>
